<svg xmlns="http://www.w3.org/2000/svg" width="64" height="64" viewBox="0 0 512 512" style="overflow: visible; max-width: 100%; max-height: 100%;" data-id="$$debug" visibility="visible" data-bbox="189.45655339819132 154.53567504882812 134.311513022898 191.99895922474843"><g data-icon="" transform="matrix(0.2551276981830597, 0, 0, 0.2551276981830597, 190.68728637695312, 154.53567504882812)" stroke="none" stroke-width="1" data-uid="o_f46gj1c8i_4"><svg id="uf3k081kg3_101193" enable-background="new 0 0 512 512" height="512" viewBox="0 0 512 512" width="512" xmlns="http://www.w3.org/2000/svg" data-uid="o_f46gj1c8i_5"><path fill="#ffd939" stroke="none" stroke-width="1" data-type="circle" data-cx="256" data-cy="256" data-r="256" d="M256,256m-256,0a256,256 0 1, 0 512,0a256,256 0 1, 0 -512,0" data-uid="o_f46gj1c8i_6"></path><path d="m473.53 391.03c-45.18 72.63-125.71 120.97-217.53 120.97-50.43 0-97.46-14.58-137.09-39.77-32.52-20.66-60.07-48.47-80.44-81.2l19.46-143.39 17.07-125.74s4.23-30.02 12.88-58.95c8.03-26.89 19.88-52.84 35.68-52.84 0 0 11.38 3.91 24.14 13.87 10.82 8.42 22.63 21.2 29.32 39.6 0 0 9.54-6.76 27.03-12.54 12.83-4.26 29.96-7.97 50.73-8.11.41-.01.81-.01 1.22-.01 49.82 0 78.97 20.66 78.97 20.66 6.69-18.4 18.5-31.18 29.32-39.61 12.76-9.95 24.15-13.86 24.15-13.86 15.8 0 27.65 25.95 35.68 52.84 8.65 28.93 12.88 58.95 12.88 58.95z" fill="#595454" transform="matrix(1, 0, 0, 1, 0.000029904214898124337, 0)" stroke="none" stroke-width="1" data-uid="o_f46gj1c8i_7"></path><path d="m254.78 42.93c-51.41 1.19-94.27 77.61-105.17 184.66-8.69 85.28-3.64 192.79-30.7 244.64-32.52-20.66-60.07-48.47-80.44-81.2l19.46-143.39 17.07-125.74s4.23-30.02 12.88-58.95c8.03-26.89 19.88-52.84 35.68-52.84 0 0 11.38 3.91 24.14 13.87 10.82 8.42 22.63 21.2 29.32 39.6 0 0 9.54-6.76 27.03-12.54 12.83-4.26 29.96-7.97 50.73-8.11z" fill="#454045" stroke="none" stroke-width="1" data-uid="o_f46gj1c8i_8"></path><path fill="#fff" stroke="none" stroke-width="1" data-type="circle" data-cx="159.783" data-cy="143.813" data-r="40.709" d="M159.783,143.813m-40.709,0a40.709,40.709 0 1, 0 81.418,0a40.709,40.709 0 1, 0 -81.418,0" data-uid="o_f46gj1c8i_9"></path><path fill="#211f21" stroke="none" stroke-width="1" data-type="circle" data-cx="159.783" data-cy="143.813" data-r="25.223" d="M159.783,143.813m-25.223,0a25.223,25.223 0 1, 0 50.446,0a25.223,25.223 0 1, 0 -50.446,0" data-uid="o_f46gj1c8i_10"></path><path fill="#fff" stroke="none" stroke-width="1" data-type="circle" data-cx="352.217" data-cy="143.813" data-r="40.709" d="M352.217,143.813m-40.709,0a40.709,40.709 0 1, 0 81.418,0a40.709,40.709 0 1, 0 -81.418,0" data-uid="o_f46gj1c8i_11"></path><g fill="#211f21" data-uid="o_f46gj1c8i_12"><path stroke="none" stroke-width="1" data-type="circle" data-cx="352.217" data-cy="143.813" data-r="25.223" d="M352.217,143.813m-25.223,0a25.223,25.223 0 1, 0 50.446,0a25.223,25.223 0 1, 0 -50.446,0" data-uid="o_f46gj1c8i_13"></path><path d="m239.101 205.635c-11.874 0-21.534-9.66-21.534-21.534v-6.032c0-2.761 2.239-5 5-5s5 2.239 5 5v6.032c0 6.36 5.174 11.534 11.534 11.534s11.534-5.174 11.534-11.534v-31.23c0-2.761 2.239-5 5-5s5 2.239 5 5v31.23c0 11.875-9.66 21.534-21.534 21.534z" stroke="none" stroke-width="1" data-uid="o_f46gj1c8i_14"></path><path d="m272.168 205.635c-11.874 0-21.534-9.66-21.534-21.534v-31.23c0-2.761 2.239-5 5-5s5 2.239 5 5v31.23c0 6.36 5.174 11.534 11.534 11.534s11.534-5.174 11.534-11.534v-6.032c0-2.761 2.239-5 5-5s5 2.239 5 5v6.032c0 11.875-9.66 21.534-21.534 21.534z" stroke="none" stroke-width="1" data-uid="o_f46gj1c8i_15"></path><path d="m124.528 90.219c8.241-3.588 13.09-12.339 11.511-21.187-2.786-15.609-14.7-34.709-24.2-33.918-13.769 1.146-27.175 60.872-11.232 60.872 8.7-.001 17.616-3.022 23.921-5.767z" stroke="none" stroke-width="1" data-uid="o_f46gj1c8i_16"></path></g><path d="m387.472 90.219c-8.241-3.588-13.09-12.339-11.511-21.187 2.786-15.609 14.7-34.709 24.2-33.918 13.769 1.146 27.175 60.872 11.232 60.872-8.7-.001-17.616-3.022-23.921-5.767z" fill="#454045" stroke="none" stroke-width="1" data-uid="o_f46gj1c8i_17"></path><path d="m270.653 171.034 13.668-23.674c6.512-11.28-1.628-25.38-14.653-25.38h-27.337c-13.025 0-21.166 14.1-14.653 25.38l13.668 23.674c6.513 11.28 22.795 11.28 29.307 0z" fill="#211f21" stroke="none" stroke-width="1" data-uid="o_f46gj1c8i_18"></path></svg></g><path text-anchor="middle" offset="0.5" fill="#806d1d" space="preserve" font-scale="contain" font-size="48" font-family="Fredoka One" text="meow" font-style="normal" font-weight="400" data-fl-textpath="" transform="matrix(1.0205111503601074, 0, 0, 1.0205111503601074, 256.0020446777344, 345.90191650390625)" data-uid="o_f46gj1c8i_19" d="M-56.948-21.94L-56.948-21.94Q-54.698-25.34 -51.528-25.34L-51.528-25.34Q-46.628-25.34 -44.228-21.17L-44.228-21.17Q-43.708-21.89 -42.958-22.68Q-42.218-23.47 -40.588-24.41Q-38.948-25.34 -37.228-25.34L-37.228-25.34Q-33.388-25.34 -30.787999999999997-22.39Q-28.198-19.44 -28.198-12.62L-28.198-12.62L-28.198-4.22Q-28.198-3.12 -28.268-2.57Q-28.348-2.02 -28.728-1.3L-28.728-1.3Q-29.348 0 -32.428 0L-32.428 0Q-35.448 0 -36.117999999999995-1.34L-36.117999999999995-1.34Q-36.458-2.06 -36.528-2.62Q-36.598-3.17 -36.598-4.27L-36.598-4.27L-36.598-12.67Q-36.598-16.85 -39.578-16.85L-39.578-16.85Q-41.257999999999996-16.85 -41.858000000000004-15.74Q-42.458-14.64 -42.458-12.62L-42.458-12.62L-42.458-4.22Q-42.458-3.07 -42.528-2.54Q-42.598-2.02 -42.988-1.3L-42.988-1.3Q-43.658 0 -46.728 0L-46.728 0Q-49.748000000000005 0 -50.428-1.34L-50.428-1.34Q-50.757999999999996-2.06 -50.828-2.62Q-50.908-3.17 -50.908-4.27L-50.908-4.27L-50.908-12.67Q-50.908-16.85 -53.878-16.85L-53.878-16.85Q-56.758-16.85 -56.758-12.67L-56.758-12.67L-56.758-4.18Q-56.758-3.07 -56.828-2.52Q-56.908-1.97 -57.288-1.25L-57.288-1.25Q-58.008 0 -61.028 0L-61.028 0Q-64.058 0 -64.728-1.3L-64.728-1.3Q-65.068-2.02 -65.138-2.54Q-65.208-3.07 -65.208-4.22L-65.208-4.22L-65.208-21.12Q-65.208-22.22 -65.138-22.78Q-65.068-23.33 -64.678-24L-64.678-24Q-63.958-25.3 -61.268-25.3Q-58.588-25.3 -57.768-24.43Q-56.948-23.57 -56.948-21.94ZM 0.019999999999999574-15.67Q 0.019999999999999574-12.72 -1.4400000000000013-11.3Q-2.900000000000002-9.89 -4.68-9.89L-4.68-9.89L-16.060000000000002-9.89Q-16.060000000000002-8.54 -14.47-7.63Q-12.89-6.72 -11.3-6.72L-11.3-6.72Q-8.52-6.72 -6.940000000000001-7.3L-6.940000000000001-7.3L-6.41-7.49Q-5.260000000000002-8.02 -4.490000000000002-8.02L-4.490000000000002-8.02Q-2.950000000000003-8.02 -1.8500000000000014-5.86L-1.8500000000000014-5.86Q-1.2200000000000024-4.56 -1.2200000000000024-3.65L-1.2200000000000024-3.65Q-1.2200000000000024 0.62 -11.450000000000001 0.62L-11.450000000000001 0.62Q-15.000000000000002 0.62 -17.76-0.6Q-20.520000000000003-1.82 -22.060000000000002-3.84L-22.060000000000002-3.84Q-25.080000000000002-7.73 -25.080000000000002-12.53L-25.080000000000002-12.53Q-25.080000000000002-18.58 -21.17-22.2Q-17.26-25.82 -11.4-25.82L-11.4-25.82Q-4.73-25.82 -1.6099999999999994-21.12L-1.6099999999999994-21.12Q 0.019999999999999574-18.62  0.019999999999999574-15.67ZM-16.15-14.26L-10.100000000000001-14.26Q-8.280000000000001-14.26 -8.280000000000001-15.79L-8.280000000000001-15.79Q-8.280000000000001-16.9 -9.120000000000001-17.57Q-9.96-18.24 -11.520000000000001-18.24Q-13.080000000000002-18.24 -14.620000000000001-16.97Q-16.15-15.7 -16.15-14.26L-16.15-14.26ZM 2.4240000000000004-12.62Q 2.4240000000000004-18.38  6.454000000000001-22.13Q 10.484-25.87  15.674-25.87Q 20.854-25.87  24.844-22.15Q 28.824-18.43  28.824-12.67L 28.824-12.67Q 28.824-8.69  26.764-5.59Q 24.694-2.5  21.744-1.03Q 18.794 0.43  15.624 0.43Q 12.454 0.43  9.484-1.13Q 6.5040000000000004-2.69  4.464-5.74Q 2.4240000000000004-8.78  2.4240000000000004-12.62L 2.4240000000000004-12.62ZM 12.454-9.19Q 13.994-8.02  15.574-8.02Q 17.164-8.02  18.744-9.22Q 20.324-10.42  20.324-12.77Q 20.324-15.12  18.844-16.27Q 17.354-17.42  15.624-17.42Q 13.894-17.42  12.404-16.22Q 10.924-15.02  10.924-12.7Q 10.924-10.37  12.454-9.19ZM 63.334-25.1L 63.334-25.1Q 66.40400000000001-23.76  66.40400000000001-21.79L 66.40400000000001-21.79Q 66.40400000000001-20.98  65.644-19.18Q 64.87400000000001-17.38  64.34400000000001-16.03L 64.34400000000001-16.03L 59.06400000000001-3.17Q 58.34400000000001-1.06  56.664-0.19L 56.664-0.19Q 55.944 0.14  54.84400000000001 0.14Q 53.73400000000001 0.14  52.70400000000001-0.7Q 51.67400000000001-1.54  51.334-2.4L 51.334-2.4L 50.95400000000001-3.22Q 50.56400000000001-4.18  48.124-10.7L 48.124-10.7Q 47.644000000000005-9.55  46.70400000000001-6.94Q 45.764-4.32  45.504000000000005-3.67Q 45.244-3.02  45.164-2.81Q 45.09400000000001-2.59  44.764-2.02Q 44.42400000000001-1.44  43.994-1.01L 43.994-1.01Q 42.844 0.14  41.354 0.14Q 39.864000000000004 0.14  38.854-0.7Q 37.844-1.54  37.514-2.4L 37.514-2.4L 30.264000000000003-20.06Q 29.784000000000002-21.5  29.784000000000002-21.94L 29.784000000000002-21.94Q 29.784000000000002-23.86  32.524-24.96L 32.524-24.96Q 34.054-25.58  35.014-25.58Q 35.974000000000004-25.58  36.574000000000005-25.18Q 37.17400000000001-24.77  37.414-24.36Q 37.654-23.95  37.804-23.52L 37.804-23.52Q 38.614000000000004-21.6  41.20400000000001-14.5L 41.20400000000001-14.5L 44.044000000000004-22.27Q 44.324000000000005-23.23  45.09400000000001-23.95L 45.09400000000001-23.95Q 46.48400000000001-25.34  47.92400000000001-25.34Q 49.364000000000004-25.34  50.404-24.58Q 51.434000000000005-23.81  51.81400000000001-23.04L 51.81400000000001-23.04L 52.20400000000001-22.22Q 54.604-15.5  55.034000000000006-14.54L 55.034000000000006-14.54L 57.964-22.51Q 59.114000000000004-25.58  61.414-25.58L 61.414-25.58Q 62.324-25.58  63.334-25.1Z"></path></svg>
