<svg xmlns="http://www.w3.org/2000/svg" width="64" height="64" viewBox="0 0 512 512" style="max-width:100%;max-height:100%" data-id="$$debug" data-bbox="189.45655339819132 154.53567504882812 134.311513022898 191.99895922474843" overflow="visible"><g data-uid="o_f46gj1c8i_4"><svg height="512" viewBox="0 0 512 512" width="512" xmlns="http://www.w3.org/2000/svg" data-uid="o_f46gj1c8i_5" transform="matrix(.25513 0 0 .25513 190.687 154.536)"><path fill="#ffd939" data-type="circle" data-cx="256" data-cy="256" data-r="256" d="M0 256a256 256 0 1 0 512 0 256 256 0 1 0-512 0" data-uid="o_f46gj1c8i_6"/><path d="M473.53 391.03C428.35 463.66 347.82 512 256 512c-50.43 0-97.46-14.58-137.09-39.77a257.481 257.481 0 0 1-80.44-81.2l19.46-143.39L75 121.9s4.23-30.02 12.88-58.95c8.03-26.89 19.88-52.84 35.68-52.84 0 0 11.38 3.91 24.14 13.87 10.82 8.42 22.63 21.2 29.32 39.6 0 0 9.54-6.76 27.03-12.54 12.83-4.26 29.96-7.97 50.73-8.11.41-.01.81-.01 1.22-.01 49.82 0 78.97 20.66 78.97 20.66 6.69-18.4 18.5-31.18 29.32-39.61 12.76-9.95 24.15-13.86 24.15-13.86 15.8 0 27.65 25.95 35.68 52.84C432.77 91.88 437 121.9 437 121.9z" fill="#595454" data-uid="o_f46gj1c8i_7"/><path d="M254.78 42.93c-51.41 1.19-94.27 77.61-105.17 184.66-8.69 85.28-3.64 192.79-30.7 244.64a257.481 257.481 0 0 1-80.44-81.2l19.46-143.39L75 121.9s4.23-30.02 12.88-58.95c8.03-26.89 19.88-52.84 35.68-52.84 0 0 11.38 3.91 24.14 13.87 10.82 8.42 22.63 21.2 29.32 39.6 0 0 9.54-6.76 27.03-12.54 12.83-4.26 29.96-7.97 50.73-8.11z" fill="#454045" data-uid="o_f46gj1c8i_8"/><path fill="#fff" data-type="circle" data-cx="159.783" data-cy="143.813" data-r="40.709" d="M119.07399999999998 143.813a40.709 40.709 0 1 0 81.418 0 40.709 40.709 0 1 0-81.418 0" data-uid="o_f46gj1c8i_9"/><path fill="#211f21" data-type="circle" data-cx="159.783" data-cy="143.813" data-r="25.223" d="M134.56 143.813a25.223 25.223 0 1 0 50.446 0 25.223 25.223 0 1 0-50.446 0" data-uid="o_f46gj1c8i_10"/><path fill="#fff" data-type="circle" data-cx="352.217" data-cy="143.813" data-r="40.709" d="M311.508 143.813a40.709 40.709 0 1 0 81.418 0 40.709 40.709 0 1 0-81.418 0" data-uid="o_f46gj1c8i_11"/><g fill="#211f21" data-uid="o_f46gj1c8i_12"><path data-type="circle" data-cx="352.217" data-cy="143.813" data-r="25.223" d="M326.99399999999997 143.813a25.223 25.223 0 1 0 50.446 0 25.223 25.223 0 1 0-50.446 0" data-uid="o_f46gj1c8i_13"/><path d="M239.101 205.635c-11.874 0-21.534-9.66-21.534-21.534v-6.032a5 5 0 0 1 10 0v6.032c0 6.36 5.174 11.534 11.534 11.534s11.534-5.174 11.534-11.534v-31.23a5 5 0 0 1 10 0v31.23c0 11.875-9.66 21.534-21.534 21.534z" data-uid="o_f46gj1c8i_14"/><path d="M272.168 205.635c-11.874 0-21.534-9.66-21.534-21.534v-31.23a5 5 0 0 1 10 0v31.23c0 6.36 5.174 11.534 11.534 11.534s11.534-5.174 11.534-11.534v-6.032a5 5 0 0 1 10 0v6.032c0 11.875-9.66 21.534-21.534 21.534z" data-uid="o_f46gj1c8i_15"/><path d="M124.528 90.219c8.241-3.588 13.09-12.339 11.511-21.187-2.786-15.609-14.7-34.709-24.2-33.918-13.769 1.146-27.175 60.872-11.232 60.872 8.7-.001 17.616-3.022 23.921-5.767z" data-uid="o_f46gj1c8i_16"/></g><path d="M387.472 90.219c-8.241-3.588-13.09-12.339-11.511-21.187 2.786-15.609 14.7-34.709 24.2-33.918 13.769 1.146 27.175 60.872 11.232 60.872-8.7-.001-17.616-3.022-23.921-5.767z" fill="#454045" data-uid="o_f46gj1c8i_17"/><path d="M270.653 171.034l13.668-23.674c6.512-11.28-1.628-25.38-14.653-25.38h-27.337c-13.025 0-21.166 14.1-14.653 25.38l13.668 23.674c6.513 11.28 22.795 11.28 29.307 0z" fill="#211f21" data-uid="o_f46gj1c8i_18"/></svg></g><path text-anchor="middle" fill="#806d1d" font-size="48" font-family="Fredoka One" font-weight="400" data-uid="o_f46gj1c8i_19" d="M197.886 323.512q2.296-3.47 5.531-3.47 5 0 7.45 4.256.53-.735 1.296-1.541.755-.806 2.419-1.766 1.673-.949 3.428-.949 3.92 0 6.573 3.01 2.643 3.011 2.643 9.971v8.572q0 1.123-.072 1.684-.081.561-.47 1.296-.632 1.327-3.775 1.327-3.082 0-3.766-1.368-.347-.734-.418-1.306-.072-.561-.072-1.684v-8.572q0-4.266-3.04-4.266-1.715 0-2.328 1.133-.612 1.123-.612 3.184v8.572q0 1.174-.071 1.715-.072.53-.47 1.265-.683 1.327-3.816 1.327-3.082 0-3.776-1.368-.337-.734-.408-1.306-.082-.561-.082-1.684v-8.572q0-4.266-3.031-4.266-2.94 0-2.94 4.266v8.664q0 1.133-.07 1.694-.082.562-.47 1.296-.735 1.276-3.817 1.276-3.092 0-3.776-1.327-.347-.735-.418-1.265-.071-.541-.071-1.715V324.35q0-1.123.071-1.694.071-.562.47-1.245.734-1.327 3.48-1.327 2.734 0 3.571.888.837.877.837 2.54zm58.136 6.399q0 3.01-1.49 4.46-1.49 1.438-3.306 1.438h-11.613q0 1.378 1.622 2.306 1.613.93 3.235.93 2.837 0 4.45-.593l.54-.194q1.174-.54 1.96-.54 1.572 0 2.694 2.204.643 1.326.643 2.255 0 4.358-10.44 4.358-3.623 0-6.44-1.245-2.816-1.245-4.387-3.307-3.082-3.97-3.082-8.868 0-6.174 3.99-9.868 3.99-3.695 9.97-3.695 6.807 0 9.991 4.797 1.663 2.551 1.663 5.562zm-16.501 1.438h6.174q1.857 0 1.857-1.561 0-1.133-.857-1.816-.857-.684-2.45-.684-1.591 0-3.163 1.296-1.561 1.296-1.561 2.765zm18.955 1.674q0-5.878 4.112-9.705 4.113-3.817 9.41-3.817 5.286 0 9.358 3.797 4.061 3.796 4.061 9.674 0 4.062-2.102 7.225-2.112 3.154-5.123 4.654-3.01 1.49-6.245 1.49-3.236 0-6.266-1.592-3.042-1.592-5.123-4.705-2.082-3.102-2.082-7.02zm10.235 3.5q1.572 1.194 3.184 1.194 1.623 0 3.236-1.224 1.612-1.225 1.612-3.623t-1.51-3.572q-1.521-1.173-3.286-1.173-1.766 0-3.287 1.224-1.51 1.225-1.51 3.592 0 2.378 1.561 3.582zm51.924-16.236q3.133 1.368 3.133 3.378 0 .827-.776 2.664-.785 1.836-1.326 3.214l-5.388 13.124q-.735 2.153-2.45 3.041-.734.337-1.857.337-1.133 0-2.184-.857-1.051-.858-1.398-1.735l-.388-.837q-.398-.98-2.888-7.634-.49 1.174-1.449 3.838-.96 2.673-1.225 3.337-.265.663-.347.877-.071.225-.408.806-.347.592-.786 1.031-1.173 1.174-2.694 1.174-1.52 0-2.551-.857-1.03-.858-1.368-1.735l-7.398-18.023q-.49-1.47-.49-1.918 0-1.96 2.796-3.082 1.562-.633 2.541-.633.98 0 1.592.408.613.419.857.837.245.419.398.857.827 1.96 3.47 9.206l2.898-7.93q.286-.98 1.072-1.714 1.418-1.419 2.888-1.419t2.53.776q1.052.786 1.44 1.571l.398.837q2.449 6.858 2.888 7.838l2.99-8.134q1.174-3.133 3.52-3.133.93 0 1.96.49z"/></svg>
